# AST/ASF file generated using VICON BodyLanguage
# -----------------------------------------------
:version 1.10
:name VICON
:units
  mass 1.0
  length 0.45
  angle deg
:documentation
   .ast/.asf automatically generated from VICON data using
   VICON BodyBuilder and BodyLanguage model FoxedUp or BRILLIANT.MOD
:root
   order TX TY TZ RX RY RZ
   axis XYZ
   position 0 0 0  
   orientation 0 0 0 
:bonedata
  begin
     id 1 
     name lhipjoint
     direction 0.635376 -0.686425 0.353719 
     length 2.47244 
     axis 0 0 0  XYZ
  end
  begin
     id 2 
     name lfemur
     direction 0.34202 -0.939693 0  
     length 7.25268  
     axis 0 0 20  XYZ
    dof rx ry rz
    limits (-160.0 20.0)
           (-70.0 70.0)
           (-60.0 70.0)
  end
  begin
     id 3 
     name ltibia
     direction 0.34202 -0.939693 0   
     length 7.6767   
     axis 0 0 20   XYZ
    dof rx
    limits (-10.0 170.0)
  end
  begin
     id 4 
     name lfoot
     direction 0.0803374 -0.220725 0.972022   
     length 2.22945   
     axis -90 7.62852e-016 20   XYZ
    dof rx rz
    limits (-45.0 90.0)
           (-70.0 20.0)
  end
  begin
     id 5 
     name ltoes
     direction 1.53579e-011 -4.21994e-011 1   
     length 1.11848   
     axis -90 7.62852e-016 20   XYZ
    dof rx
    limits (-90.0 20.0)
  end
  begin
     id 6 
     name rhipjoint
     direction -0.664428 -0.664335 0.342336   
     length 2.55466  
     axis 0 0 0  XYZ 
  end
  begin
     id 7 
     name rfemur
     direction -0.34202 -0.939693 0   
     length 6.83172   
     axis 0 0 -20   XYZ
    dof rx ry rz
    limits (-160.0 20.0)
           (-70.0 70.0)
           (-70.0 60.0)
  end
  begin
     id 8 
     name rtibia
     direction -0.34202 -0.939693 0   
     length 7.62692   
     axis 0 0 -20   XYZ
    dof rx
    limits (-10.0 170.0)
 end
 begin
     id 9 
     name rfoot
     direction -0.0949276 -0.260811 0.960711   
     length 2.19684  
     axis -90 -7.62852e-016 -20   XYZ
    dof rx rz
    limits (-45.0 90.0)
           (-20.0 70.0)
  end
  begin
     id 10 
     name rtoes
     direction -1.53543e-011 -4.2183e-011 1   
     length 1.09848   
     axis -90 -7.62852e-016 -20   XYZ
    dof rx
    limits (-90.0 20.0)
  end
  begin
     id 11 
     name lowerback
     direction 0.0118782 0.999815 -0.0151555   
     length 2.15772   
     axis 0 0 0   XYZ
    dof rx ry rz
    limits (-20.0 45.0)
           (-30.0 30.0)
           (-30.0 30.0)
  end
  begin
     id 12 
     name upperback
     direction 0.00130825 0.999065 0.0432113   
     length 2.14863   
     axis 0 0 0   XYZ
    dof rx ry rz
    limits (-20.0 45.0)
           (-30.0 30.0)
           (-30.0 30.0)
  end
  begin
     id 13 
     name thorax
     direction -0.00347005 0.998773 0.0494011   
     length 2.14936   
     axis 0 0 0   XYZ
    dof rx ry rz
    limits (-20.0 45.0)
           (-30.0 30.0)
           (-30.0 30.0)
  end
  begin
     id 14 
     name lowerneck
     direction -0.0262159 0.99424 0.103921   
     length 1.69373   
     axis 0 0 0   XYZ
    dof rx ry rz
    limits (-20.0 45.0)
           (-30.0 30.0)
           (-30.0 30.0)
  end
  begin
     id 15 
     name upperneck
     direction 0.0353511 0.977394 -0.20845   
     length 1.70857   
     axis 0 0 0   XYZ
    dof rx ry rz
    limits (-20.0 45.0)
           (-30.0 30.0)
           (-30.0 30.0)
  end
  begin
     id 16
     name head
     direction 0.0139214 0.996594 -0.0812836  
     length 1.72777  
     axis 0 0 0   XYZ
    dof rx ry rz
    limits (-20.0 45.0)
           (-30.0 30.0)
           (-30.0 30.0)
  end
  begin
     id 17 
     name lclavicle
     direction 0.841247 0.537205 -0.0609508  
     length 3.55371  
     axis 0 0 0   XYZ
    dof ry rz
    limits (-20.0 10.0)
           (0.0 20.0)
  end
  begin
     id 18 
     name lhumerus
     direction 1 -4.48964e-011 1.60116e-018   
     length 4.91377   
     axis -180 -30 -90   XYZ
    dof rx ry rz
    limits (-60.0 90.0)
           (-90.0 90.0)
           (-90.0 90.0)
  end
  begin
     id 19
     name lradius
     direction 1 -4.48989e-011 -8.93847e-027   
     length 3.00291   
     axis -180 -30 -90   XYZ
    dof rx
    limits (-10.0 170.0)
  end
  begin
     id 20
     name lwrist
     direction 1 -4.48932e-011 -7.31504e-027   
     length 1.50145   
     axis 5.74121e-015 90 90   XYZ
    dof ry
    limits (-180.0 0.0)
 end
  begin
     id 21 
     name lhand
     direction 1 -4.48971e-011 -1.46301e-026   
     length 0.450922   
     axis 9.33524e-015 90 90   XYZ
    dof rx rz
    limits (-90.0 90.0)
           (-45.0 45.0)
  end
  begin
     id 22 
     name lfingers
     direction 1 -4.49039e-011 -2.92602e-026   
     length 0.363545   
     axis 1.86705e-014 90 90   XYZ
    dof rx
    limits (0.0 90.0)
  end
  begin
     id 23
     name lthumb
     direction 0.707107 -6.34941e-011 0.707107   
     length 0.52198   
     axis -90 45 2.85299e-015   XYZ
    dof rx rz
    limits (-45.0 45.0)
           (-45.0 45.0)
  end
  begin
     id 24 
     name rclavicle
     direction -0.825079 0.56158 -0.0622297   
     length 3.39909  
     axis 0 0 0   XYZ 
    dof ry rz
    limits (-10.0 20.0)
           (-20.0 0.0)
  end
  begin
     id 25 
     name rhumerus
     direction -1 -4.48965e-011 1.61691e-027  
     length 4.86725   
     axis -180 30 90   XYZ
    dof rx ry rz
    limits (-90.0 60.0)
           (-90.0 90.0)
           (-90.0 90.0)
  end
  begin
     id 26 
     name rradius
     direction -1 -4.48964e-011 -2.25776e-027   
     length 3.17144   
     axis -180 30 90   XYZ
    dof rx
    limits (-10.0 170.0)
  end
  begin
     id 27 
     name rwrist
     direction -1 -4.48961e-011 -7.31504e-027   
     length 1.58572   
     axis 5.74121e-015 -90 -90   XYZ
    dof ry
    limits (-180.0 0.0)
  end
  begin
     id 28
     name rhand
     direction -1 -4.49013e-011 -1.46301e-026   
     length 0.419368   
     axis 9.33524e-015 -90 -90   XYZ
    dof rx rz
    limits (-90.0 90.0)
           (-45.0 45.0)
  end
  begin
     id 29
     name rfingers
     direction -1 -4.489e-011 -2.92602e-026   
     length 0.338105   
     axis 1.86705e-014 -90 -90   XYZ
    dof rx
    limits (0.0 90.0)
  end
  begin
     id 30
     name rthumb
     direction -0.707107 -6.35022e-011 0.707107   
     length 0.485453   
     axis -90 -45 -2.85299e-015   XYZ
    dof rx rz
    limits (-45.0 45.0)
           (-45.0 45.0)
  end
:hierarchy
  begin
    root lhipjoint rhipjoint lowerback
    lhipjoint lfemur
    lfemur ltibia
    ltibia lfoot
    lfoot ltoes
    rhipjoint rfemur
    rfemur rtibia
    rtibia rfoot
    rfoot rtoes
    lowerback upperback
    upperback thorax
    thorax lowerneck lclavicle rclavicle
    lowerneck upperneck
    upperneck head
    lclavicle lhumerus
    lhumerus lradius
    lradius lwrist
    lwrist lhand lthumb
    lhand lfingers
    rclavicle rhumerus
    rhumerus rradius
    rradius rwrist
    rwrist rhand rthumb
    rhand rfingers
  end

#!OML:ASF H:\Swim 2\Project 1\Capture day 1\Session 1\male.ASF
:FULLY-SPECIFIED
:DEGREES
1453
root 4.9093 14.9392 8.51828 104.152 -65.1344 -4.26342
lowerback -2.31521 5.97888 0.567829
upperback -7.79369 8.05626 -2.16356
thorax -6.43674 3.94619 -2.81516
lowerneck -16.655 -6.37591 -0.384918
upperneck 4.16819 -8.84823 3.90575
head 4.09586 -4.178 0.533635
rclavicle 1.59028e-014 5.68524e-014
rhumerus 34.5437 -17.0334 12.8237
rradius 33.1868
rwrist -17.4185
rhand -21.786 -6.58985
rfingers 7.12502
rthumb 4.61539 -36.5196
lclavicle 1.59028e-014 5.68524e-014
lhumerus 94.6394 16.7413 19.2371
lradius 23.5778
lwrist 56.5972
lhand -34.5014 -11.8589
lfingers 7.12502
lthumb -7.66353 17.9823
rfemur -91.4429 -4.07085 22.3812
rtibia 93.6757
rfoot 6.67596 2.93319
rtoes 9.17085
lfemur -96.6633 14.5981 -42.2424
ltibia 105.558
lfoot -12.8485 -4.10946
ltoes -20.2316
1454
root 4.93088 14.9646 8.51397 104.24 -65.1642 -4.47036
lowerback -2.11418 6.04134 0.276843
upperback -7.75052 8.14004 -2.16213
thorax -6.54184 4.00478 -2.6822
lowerneck -16.2696 -6.42 -0.251044
upperneck 3.22563 -8.90334 3.8496
head 3.73643 -4.24015 0.522243
rclavicle 1.52667e-013 3.37934e-014
rhumerus 33.1252 -16.156 13.1735
rradius 33.6434
rwrist -17.3447
rhand -21.5474 -6.46359
rfingers 7.12502
rthumb 4.84582 -36.3882
lclavicle 1.52667e-013 3.37934e-014
lhumerus 93.8685 16.4472 18.9915
lradius 24.1934
lwrist 56.4845
lhand -34.2931 -12.0705
lfingers 7.12502
lthumb -7.4625 17.7778
rfemur -91.9573 -4.13204 22.3377
rtibia 94.7346
rfoot 6.48989 3.07618
rtoes 8.92048
lfemur -97.0483 14.712 -42.3424
ltibia 106.384
lfoot -12.7946 -4.23655
ltoes -20.2292
1455
root 4.95156 14.9897 8.51027 104.37 -65.1908 -4.71547
lowerback -1.92264 6.11649 -0.0366413
upperback -7.71503 8.23995 -2.15435
thorax -6.65463 4.07298 -2.53168
lowerneck -15.7533 -6.481 -0.207907
upperneck 1.92854 -8.95978 3.80519
head 3.62659 -4.31352 0.573652
rclavicle -6.67916e-014 3.57812e-015
rhumerus 31.7231 -15.2844 13.4132
rradius 34.1543
rwrist -17.3354
rhand -21.3386 -6.39075
rfingers 7.12502
rthumb 5.04743 -36.3106
lclavicle -6.67916e-014 3.57812e-015
lhumerus 93.0714 16.1208 18.7212
lradius 24.8587
lwrist 56.4906
lhand -34.0016 -12.433
lfingers 7.12502
lthumb -7.18112 17.4251
rfemur -92.4888 -4.16828 22.2914
rtibia 95.7757
rfoot 6.27368 3.22352
rtoes 8.63823
lfemur -97.4512 14.8367 -42.4374
ltibia 107.196
lfoot -12.7459 -4.39084
ltoes -20.2008
1456
root 4.97137 15.0142 8.50707 104.554 -65.2018 -5.00618
lowerback -1.72875 6.18698 -0.330574
upperback -7.68744 8.33252 -2.14444
thorax -6.77652 4.13619 -2.3912
lowerneck -15.3892 -6.52275 -0.0942854
upperneck 1.04312 -9.01293 3.7619
head 3.23422 -4.37262 0.56542
rclavicle 1.17681e-013 7.23576e-014
rhumerus 30.394 -14.431 13.5178
rradius 34.7118
rwrist -17.4382
rhand -21.1424 -6.37793
rfingers 7.12502
rthumb 5.23686 -36.2932
lclavicle 1.17681e-013 7.23576e-014
lhumerus 92.1952 15.7914 18.3184
lradius 25.5948
lwrist 56.6249
lhand -33.852 -12.7774
lfingers 7.12502
lthumb -7.03669 17.0856
rfemur -93.0388 -4.1692 22.2547
rtibia 96.7946
rfoot 6.03478 3.38543
rtoes 8.34668
lfemur -97.8853 14.9803 -42.5175
ltibia 107.998
lfoot -12.7146 -4.55859
ltoes -20.174
1457
root 4.99038 15.0379 8.50456 104.77 -65.1927 -5.31997
lowerback -1.51586 6.23819 -0.563416
upperback -7.66429 8.39797 -2.1412
thorax -6.90614 4.18158 -2.29267
lowerneck -15.0833 -6.55222 -0.0443724
upperneck 0.179321 -9.04424 3.7819
head 2.87261 -4.41761 0.588848
rclavicle 1.27222e-014 -6.20208e-014
rhumerus 29.1498 -13.6043 13.4773
rradius 35.3223
rwrist -17.6669
rhand -20.9445 -6.39341
rfingers 7.12502
rthumb 5.42797 -36.3039
lclavicle 1.27222e-014 -6.20208e-014
lhumerus 91.222 15.4772 17.7525
lradius 26.4053
lwrist 56.9258
lhand -33.8406 -13.0686
lfingers 7.12502
lthumb -7.02572 16.7948
rfemur -93.6022 -4.14335 22.2338
rtibia 97.7906
rfoot 5.77917 3.57133
rtoes 8.05002
lfemur -98.3449 15.1334 -42.574
ltibia 108.789
lfoot -12.7002 -4.73421
ltoes -20.1057
1458
root 5.00855 15.0609 8.50216 105.033 -65.1629 -5.67051
lowerback -1.27745 6.26098 -0.727408
upperback -7.64605 8.42378 -2.14943
thorax -7.04546 4.20211 -2.24501
lowerneck -14.8387 -6.55577 -0.0408512
upperneck -0.672916 -9.03776 3.86196
head 2.53629 -4.44097 0.640054
rclavicle 3.81667e-014 -1.86858e-014
rhumerus 28.001 -12.8225 13.2719
rradius 35.9967
rwrist -17.9989
rhand -20.7337 -6.43042
rfingers 7.12502
rthumb 5.63145 -36.3356
lclavicle 3.81667e-014 -1.86858e-014
lhumerus 90.3377 15.1254 17.35
lradius 27.0191
lwrist 57.0275
lhand -33.8603 -13.3517
lfingers 7.12502
lthumb -7.04472 16.5111
rfemur -94.184 -4.08013 22.2294
rtibia 98.7664
rfoot 5.52412 3.79348
rtoes 7.80142
lfemur -98.8399 15.3067 -42.6082
ltibia 109.571
lfoot -12.7117 -4.89377
ltoes -20.0521
1459
root 5.02603 15.083 8.50071 105.262 -65.1228 -5.98356
lowerback -1.00703 6.25251 -0.820642
upperback -7.62816 8.40631 -2.16924
thorax -7.19262 4.19574 -2.24905
lowerneck -14.6383 -6.53732 -0.0739703
upperneck -1.51946 -8.99873 3.98778
head 2.21793 -4.4463 0.712254
rclavicle -9.54166e-014 -7.11649e-014
rhumerus 26.91 -12.0791 12.9334
rradius 36.7509
rwrist -18.4223
rhand -20.4932 -6.46303
rfingers 7.12502
rthumb 5.86371 -36.3619
lclavicle -9.54166e-014 -7.11649e-014
lhumerus 89.318 14.805 16.7561
lradius 27.7547
lwrist 57.386
lhand -33.9092 -13.6092
lfingers 7.12502
lthumb -7.09195 16.2519
rfemur -94.7691 -4.02419 22.236
rtibia 99.7262
rfoot 5.26618 4.03318
rtoes 7.51892
lfemur -99.3376 15.4628 -42.612
ltibia 110.338
lfoot -12.7429 -5.01688
ltoes -20.0217
1460
root 5.0423 15.1045 8.50143 105.368 -65.083 -6.20084
lowerback -0.668998 6.20665 -0.827776
upperback -7.60011 8.33737 -2.20376
thorax -7.35418 4.15688 -2.31883
lowerneck -14.4814 -6.49595 -0.128168
upperneck -2.35961 -8.92754 4.14887
head 1.91544 -4.43429 0.798986
rclavicle -6.36111e-015 -8.15017e-015
rhumerus 25.8699 -11.3645 12.476
rradius 37.583
rwrist -18.9349
rhand -20.2179 -6.50289
rfingers 7.12502
rthumb 6.12941 -36.3942
lclavicle -6.36111e-015 -8.15017e-015
lhumerus 88.1932 14.4981 16.0393
lradius 28.584
lwrist 57.8967
lhand -33.9535 -13.8686
lfingers 7.12502
lthumb -7.13472 15.9911
rfemur -95.3117 -4.01642 22.2447
rtibia 100.669
rfoot 5.01054 4.29303
rtoes 7.19615
lfemur -99.7745 15.5824 -42.5774
ltibia 111.076
lfoot -12.7921 -5.09955
ltoes -20.0348
1461
root 5.0572 15.1251 8.50446 105.352 -65.0503 -6.32953
lowerback -0.296284 6.14985 -0.807566
upperback -7.56051 8.25334 -2.24015
thorax -7.51984 4.10823 -2.40712
lowerneck -14.32 -6.44848 -0.159576
upperneck -3.2102 -8.85089 4.29199
head 1.60939 -4.42117 0.876251
rclavicle -1.90833e-014 2.5842e-015
rhumerus 24.7995 -10.6568 11.9524
rradius 38.5043
rwrist -19.4934
rhand -19.937 -6.52265
rfingers 7.12502
rthumb 6.40067 -36.4059
lclavicle -1.90833e-014 2.5842e-015
lhumerus 87.0481 14.1521 15.3444
lradius 29.4866
lwrist 58.4572
lhand -34.0019 -14.1173
lfingers 7.12502
lthumb -7.18139 15.7408
rfemur -95.8062 -4.0641 22.2492
rtibia 101.598
rfoot 4.77103 4.57185
rtoes 6.81903
lfemur -100.14 15.6691 -42.5108
ltibia 111.782
lfoot -12.857 -5.14122
ltoes -20.1241
1462
root 5.06865 15.1457 8.5106 105.162 -65.0262 -6.37239
lowerback 0.169573 6.08115 -0.759504
upperback -7.49631 8.15277 -2.2724
thorax -7.71043 4.04853 -2.51406
lowerneck -14.1657 -6.39593 -0.178432
upperneck -4.05352 -8.76916 4.42512
head 1.30867 -4.40621 0.947673
rclavicle -4.45278e-014 -1.01181e-013
rhumerus 23.7146 -9.94083 11.3787
rradius 39.5044
rwrist -20.1085
rhand -19.6688 -6.55696
rfingers 7.12502
rthumb 6.65955 -36.4322
lclavicle -4.45278e-014 -1.01181e-013
lhumerus 85.8928 13.7605 14.7097
lradius 30.4424
lwrist 58.9832
lhand -34.0284 -14.3402
lfingers 7.12502
lthumb -7.20699 15.5171
rfemur -96.1735 -4.17375 22.2452
rtibia 102.501
rfoot 4.54709 4.88805
rtoes 6.40388
lfemur -100.362 15.7589 -42.3983
ltibia 112.445
lfoot -12.9367 -5.1887
ltoes -20.2439
